<?xml version="1.0" encoding="UTF-8"?>
<svg xmlns="http://www.w3.org/2000/svg" xmlns:xlink="http://www.w3.org/1999/xlink" width="60px" height="60px" viewBox="0 0 60 60" version="1.1">
    <!-- Generator: Sketch 51.3 (57544) - http://www.bohemiancoding.com/sketch -->
    <title>001 - Database Programming</title>
    <desc>Created with Sketch.</desc>
    <defs/>
    <g id="Page-1" stroke="none" stroke-width="1" fill="none" fill-rule="evenodd">
        <g id="001---Database-Programming" transform="translate(1.000000, 1.000000)">
            <rect id="Rectangle-path" fill="#00695C" fill-rule="nonzero" x="26" y="34" width="15" height="24" rx="2"/>
            <rect id="Rectangle-path" fill="#00695C" fill-rule="nonzero" x="0" y="34" width="15" height="24" rx="2"/>
            <rect id="Rectangle-path" fill="#00695C" fill-rule="nonzero" x="0" y="0" width="15" height="24" rx="2"/>
            <path d="M58,2 L58,10 L26,10 L26,2 C26.0032948,0.896798134 26.8967981,0.00329480111 28,0 L56,0 C57.1032019,0.00329480111 57.9967052,0.896798134 58,2 Z" id="Shape" fill="#00838F" fill-rule="nonzero"/>
            <path d="M55,2 L55,10 L26,10 L26,2 C26.0032948,0.896798134 26.8967981,0.00329480111 28,0 L53,0 C54.1032019,0.00329480111 54.9967052,0.896798134 55,2 Z" id="Shape" fill="#00BCD4" fill-rule="nonzero"/>
            <path d="M58,8 L58,24 C57.9967052,25.1032019 57.1032019,25.9967052 56,26 L28,26 C26.8967981,25.9967052 26.0032948,25.1032019 26,24 L26,8 L58,8 Z" id="Shape" fill="#CFD8DC" fill-rule="nonzero"/>
            <path d="M55,8 L55,24 C54.9967052,25.1032019 54.1032019,25.9967052 53,26 L28,26 C26.8967981,25.9967052 26.0032948,25.1032019 26,24 L26,8 L55,8 Z" id="Shape" fill="#F4F4F4" fill-rule="nonzero"/>
            <rect id="Rectangle-path" fill="#00838F" fill-rule="nonzero" x="0" y="42" width="15" height="8"/>
            <rect id="Rectangle-path" fill="#00838F" fill-rule="nonzero" x="0" y="8" width="15" height="8"/>
            <rect id="Rectangle-path" fill="#00838F" fill-rule="nonzero" x="26" y="42" width="15" height="8"/>
            <rect id="Rectangle-path" fill="#009688" fill-rule="nonzero" x="26" y="34" width="12" height="24" rx="2"/>
            <rect id="Rectangle-path" fill="#009688" fill-rule="nonzero" x="0" y="34" width="12" height="24" rx="2"/>
            <rect id="Rectangle-path" fill="#009688" fill-rule="nonzero" x="0" y="0" width="12" height="24" rx="2"/>
            <rect id="Rectangle-path" fill="#00BCD4" fill-rule="nonzero" x="0" y="42" width="12" height="8"/>
            <rect id="Rectangle-path" fill="#00BCD4" fill-rule="nonzero" x="0" y="8" width="12" height="8"/>
            <rect id="Rectangle-path" fill="#00BCD4" fill-rule="nonzero" x="26" y="42" width="12" height="8"/>
            <rect id="Rectangle-path" stroke="#000000" stroke-width="2" stroke-linecap="round" stroke-linejoin="round" x="26" y="0" width="32" height="26" rx="2"/>
            <rect id="Rectangle-path" stroke="#000000" stroke-width="2" stroke-linecap="round" stroke-linejoin="round" x="0" y="34" width="15" height="24" rx="2"/>
            <rect id="Rectangle-path" stroke="#000000" stroke-width="2" stroke-linecap="round" stroke-linejoin="round" x="0" y="0" width="15" height="24" rx="2"/>
            <rect id="Rectangle-path" stroke="#000000" stroke-width="2" stroke-linecap="round" stroke-linejoin="round" x="26" y="34" width="15" height="24" rx="2"/>
            <path d="M7,24 L7,27" id="Shape" stroke="#000000" stroke-width="2" stroke-linecap="round" stroke-linejoin="round"/>
            <path d="M7,31 L7,34" id="Shape" stroke="#000000" stroke-width="2" stroke-linecap="round" stroke-linejoin="round"/>
            <path d="M15,46 L18,46" id="Shape" stroke="#000000" stroke-width="2" stroke-linecap="round" stroke-linejoin="round"/>
            <path d="M23,46 L26,46" id="Shape" stroke="#000000" stroke-width="2" stroke-linecap="round" stroke-linejoin="round"/>
            <path d="M15,12 L18,12" id="Shape" stroke="#000000" stroke-width="2" stroke-linecap="round" stroke-linejoin="round"/>
            <path d="M23,12 L26,12" id="Shape" stroke="#000000" stroke-width="2" stroke-linecap="round" stroke-linejoin="round"/>
            <path d="M41,46 L44,46" id="Shape" stroke="#000000" stroke-width="2" stroke-linecap="round" stroke-linejoin="round"/>
            <path d="M0,8 L15,8" id="Shape" stroke="#000000" stroke-width="2" stroke-linecap="round" stroke-linejoin="round"/>
            <path d="M0,16 L15,16" id="Shape" stroke="#000000" stroke-width="2" stroke-linecap="round" stroke-linejoin="round"/>
            <path d="M0,42 L15,42" id="Shape" stroke="#000000" stroke-width="2" stroke-linecap="round" stroke-linejoin="round"/>
            <path d="M0,50 L15,50" id="Shape" stroke="#000000" stroke-width="2" stroke-linecap="round" stroke-linejoin="round"/>
            <path d="M26,42 L41,42" id="Shape" stroke="#000000" stroke-width="2" stroke-linecap="round" stroke-linejoin="round"/>
            <path d="M26,50 L41,50" id="Shape" stroke="#000000" stroke-width="2" stroke-linecap="round" stroke-linejoin="round"/>
            <circle id="Oval" fill="#000000" fill-rule="nonzero" cx="4" cy="12" r="1"/>
            <circle id="Oval" fill="#000000" fill-rule="nonzero" cx="4" cy="20" r="1"/>
            <circle id="Oval" fill="#000000" fill-rule="nonzero" cx="4" cy="4" r="1"/>
            <circle id="Oval" fill="#000000" fill-rule="nonzero" cx="30" cy="4" r="1"/>
            <circle id="Oval" fill="#000000" fill-rule="nonzero" cx="34" cy="4" r="1"/>
            <circle id="Oval" fill="#000000" fill-rule="nonzero" cx="38" cy="4" r="1"/>
            <circle id="Oval" fill="#000000" fill-rule="nonzero" cx="4" cy="46" r="1"/>
            <circle id="Oval" fill="#000000" fill-rule="nonzero" cx="4" cy="54" r="1"/>
            <circle id="Oval" fill="#000000" fill-rule="nonzero" cx="4" cy="38" r="1"/>
            <circle id="Oval" fill="#000000" fill-rule="nonzero" cx="30" cy="46" r="1"/>
            <circle id="Oval" fill="#000000" fill-rule="nonzero" cx="30" cy="54" r="1"/>
            <circle id="Oval" fill="#000000" fill-rule="nonzero" cx="30" cy="38" r="1"/>
            <path d="M48,46 C49.1045695,46 50,45.1045695 50,44" id="Shape" stroke="#000000" stroke-width="2" stroke-linecap="round" stroke-linejoin="round"/>
            <path d="M50,40 L50,38" id="Shape" stroke="#000000" stroke-width="2" stroke-linecap="round" stroke-linejoin="round"/>
            <path d="M50,33 L50,26" id="Shape" stroke="#000000" stroke-width="2" stroke-linecap="round" stroke-linejoin="round"/>
            <path d="M26,8 L58,8" id="Shape" stroke="#000000" stroke-width="2" stroke-linecap="round" stroke-linejoin="round"/>
            <polyline id="Shape" stroke="#000000" stroke-width="2" stroke-linecap="round" stroke-linejoin="round" points="30 12 34 17 30 22"/>
            <path d="M35,22 L43,22" id="Shape" stroke="#000000" stroke-width="2" stroke-linecap="round" stroke-linejoin="round"/>
        </g>
    </g>
</svg>
